<svg xmlns="http://www.w3.org/2000/svg" viewBox="0 0 100 100" width="500" height="500" class="illustration"><defs><style>.cls-1{fill:#f0457d;stroke-linejoin:bevel;}.cls-1,.cls-2,.cls-3,.cls-4{stroke:#231f20;stroke-width:1.5px;}.cls-2{fill:#0099f5;}.cls-2,.cls-3,.cls-4{stroke-miterlimit:10;}.cls-3{fill:#fff;}.cls-4{fill:#ffd44d;}</style></defs><g id="Layer_2" data-name="Layer 2"><polygon class="cls-1" points="65.95 82.08 34.05 82.08 45.35 72.77 54.66 72.77 65.95 82.08"></polygon><path class="cls-2" d="M87.05,27.44V70.7a3.76,3.76,0,0,1-3.76,3.77H16.72a3.77,3.77,0,0,1-3.78-3.77V27.44a3.78,3.78,0,0,1,3.78-3.78H83.29A3.77,3.77,0,0,1,87.05,27.44Z"></path><path class="cls-3" d="M39.8,17.92H83.92a3.14,3.14,0,0,1,3.14,3.14V65.59a3.14,3.14,0,0,1-3.14,3.13H16.09A3.13,3.13,0,0,1,13,65.59V21.06a3.13,3.13,0,0,1,3.14-3.14H31.72"></path><path class="cls-2" d="M87.05,68.73v2a3.76,3.76,0,0,1-3.76,3.77H16.72a3.77,3.77,0,0,1-3.78-3.77v-2Z"></path><line class="cls-1" x1="24.12" y1="82.08" x2="75.88" y2="82.08"></line><path class="cls-1" d="M20.88,25.73v2.5a2.08,2.08,0,0,1-.82,1.65L18.44,31.1a2.06,2.06,0,0,0,0,3.29l1.62,1.22a2.08,2.08,0,0,1,.82,1.64v2.51a2.06,2.06,0,0,0,2.06,2.06H78.79a2.06,2.06,0,0,0,2.06-2.06v-14a2.06,2.06,0,0,0-2.06-2.06H22.94A2.06,2.06,0,0,0,20.88,25.73Z"></path><path class="cls-4" d="M78.3,62.35V59.84a2.08,2.08,0,0,1,.82-1.64L80.74,57a2.06,2.06,0,0,0,0-3.29l-1.62-1.22a2.08,2.08,0,0,1-.82-1.65v-2.5a2.06,2.06,0,0,0-2.06-2.06H20.39a2.06,2.06,0,0,0-2.06,2.06v14a2.06,2.06,0,0,0,2.06,2.06H76.24A2.06,2.06,0,0,0,78.3,62.35Z"></path><line class="cls-1" x1="27.41" y1="27.41" x2="45.78" y2="27.41"></line><line class="cls-1" x1="27.41" y1="31.91" x2="72.51" y2="31.91"></line><line class="cls-1" x1="27.41" y1="34.4" x2="72.51" y2="34.4"></line><line class="cls-1" x1="27.41" y1="36.9" x2="72.51" y2="36.9"></line><line class="cls-1" x1="22.7" y1="50.59" x2="41.07" y2="50.59"></line><line class="cls-1" x1="22.7" y1="55.09" x2="67.8" y2="55.09"></line><line class="cls-1" x1="22.7" y1="57.58" x2="67.8" y2="57.58"></line><line class="cls-1" x1="22.7" y1="60.08" x2="67.8" y2="60.08"></line></g></svg>