<svg xmlns="http://www.w3.org/2000/svg" viewBox="0 0 100 100" width="500" height="500" class="illustration"><defs><style>.cls-1{fill:#0099f5;}.cls-1,.cls-2,.cls-3,.cls-4{stroke:#231f20;stroke-miterlimit:10;stroke-width:1.5px;}.cls-2{fill:#ffd44d;}.cls-3{fill:#231f20;}.cls-4{fill:none;}</style></defs><g id="Layer_2" data-name="Layer 2"><path class="cls-1" d="M58.45,75.93H31.77a3.15,3.15,0,0,1-3.21-2.72L23.3,25.58a3.09,3.09,0,0,1,3.2-3.29H63.72a3.1,3.1,0,0,1,3.2,3.29L61.65,73.21A3.13,3.13,0,0,1,58.45,75.93Z"></path><path class="cls-2" d="M23.77,19.9H66.44a4.76,4.76,0,0,1,4.76,4.76v.83a0,0,0,0,1,0,0H19a0,0,0,0,1,0,0v-.83a4.76,4.76,0,0,1,4.76-4.76Z"></path><path class="cls-1" d="M44.66,15.24h.89a2.57,2.57,0,0,1,2.57,2.57v3.46a0,0,0,0,1,0,0h-6a0,0,0,0,1,0,0V17.81A2.57,2.57,0,0,1,44.66,15.24Z"></path><path class="cls-3" d="M57.1,44.33H55.44A12.49,12.49,0,0,0,43.17,34.12h0a12.5,12.5,0,0,0-12.5,12.5v2H28.34a8.65,8.65,0,0,0,0,17.29H57.1a10.81,10.81,0,0,0,0-21.62Z"></path><path class="cls-2" d="M57.1,41H55.44a12.5,12.5,0,0,0-12.27-10.2h0A12.49,12.49,0,0,0,30.67,43.3v2.05H28.34a8.65,8.65,0,0,0,0,17.29H57.1A10.82,10.82,0,0,0,57.1,41Z"></path><path class="cls-4" d="M34.61,34.2a12.43,12.43,0,0,0-3.94,9.1v2.05H28.34a8.65,8.65,0,0,0,0,17.29H57.1A10.82,10.82,0,0,0,57.1,41H55.44a12.5,12.5,0,0,0-12.27-10.2h0"></path><path class="cls-4" d="M44,45.32h5A4.72,4.72,0,0,1,53.71,50h0A4.72,4.72,0,0,1,49,54.76H47.71"></path><path class="cls-4" d="M44.84,54.76H38.62A4.73,4.73,0,0,1,33.9,50h0a4.72,4.72,0,0,1,4.72-4.72h2.53"></path><polyline class="cls-4" points="39.78 43.01 42.1 45.32 39.78 47.63"></polyline><polyline class="cls-4" points="50.02 57.07 47.71 54.76 50.02 52.45"></polyline></g></svg>